<?xml version="1.0" encoding="UTF-8"?>
<svg id="Layer_1" data-name="Layer 1" xmlns="http://www.w3.org/2000/svg" viewBox="0 0 491 143">
  <path d="M487.4,0h-20.4V3.6h20.4V24h3.6V0h-3.6Z"/>
  <path d="M24,0H0V24H3.6V3.6H24V0Z"/>
  <path d="M0,139.4v3.6H24v-3.6H3.6v-20.4H0v20.4Z"/>
  <path d="M491,139.4v-20.4h-3.6v20.4h-20.4v3.6h24v-3.6Z"/>
  <g>
    <path d="M66.8,107.5c-10.2,0-18.8-3.4-25.8-10.1s-10.5-15.6-10.5-26.6,3.5-20,10.6-26.8c7.1-7,15.4-10.4,24.9-10.4s17,2.3,22.5,6.9c5.5,4.6,9,10.2,10.6,16.7l-13,4.1c-1-4.1-3.1-7.5-6.3-10.2-3.2-2.7-7.6-4.1-13.4-4.1s-10.8,2.1-15.1,6.2c-4.4,4.2-6.5,9.9-6.5,17.3s2.1,13.2,6.4,17.4,9.3,6.3,15.1,6.3,10.4-1.4,13.7-4.3c3.3-2.9,5.5-6.3,6.6-10.2l12.9,3.9c-1.6,6.1-4.9,11.4-9.9,16-2.6,2.4-5.9,4.3-9.9,5.8-3.9,1.4-8.2,2.1-12.9,2.1Z"/>
    <path d="M120.4,106h-13.3V33.6h13.3V106Z"/>
    <path d="M139.2,32.4c2.3,0,4.2,.8,5.8,2.4,1.6,1.6,2.3,3.5,2.3,5.8s-.8,4.2-2.3,5.8c-1.6,1.6-3.6,2.3-5.9,2.3s-4.2-.8-5.8-2.3c-1.6-1.6-2.4-3.5-2.4-5.8s.8-4.2,2.4-5.8c1.7-1.6,3.6-2.4,5.9-2.4Zm6.7,73.6h-13.3V56.8h13.3v49.2Z"/>
    <path d="M171.4,125h-13.4V56.8h13v6c1.2-2,3.1-3.7,5.8-5,2.7-1.4,5.8-2.1,9.3-2.1,7.1,0,12.6,2.4,16.7,7.1,4.1,4.8,6.2,10.9,6.2,18.5s-2.2,13.8-6.5,18.6c-4.4,4.9-9.9,7.3-16.6,7.3s-11.5-2-14.5-6v23.8Zm20.8-33.5c2.3-2.5,3.4-5.9,3.4-10.2s-1.1-7.6-3.4-10.1c-2.3-2.4-5.2-3.7-8.7-3.7s-6.5,1.2-8.8,3.7-3.5,5.8-3.5,10.1,1.2,7.6,3.5,10.1,5.3,3.8,8.8,3.8c3.5,.1,6.4-1.2,8.7-3.7Z"/>
    <path d="M268.8,86.3c0,5.5-2.3,10.4-6.9,14.7-4.6,4.3-10.8,6.5-18.6,6.5-4.4,0-8.5-.7-12-2-6.3-2.3-10.9-6.5-13.8-12.4-1.2-2.5-2-5.1-2.3-7.7l12.8-3.4c.3,3.8,1.8,7,4.5,9.6,2.6,2.6,6,3.8,10.2,3.8s7.2-.8,9.3-2.4c2-1.6,3-3.6,3-5.9s-.8-4.3-2.3-5.8-3.7-2.6-6.4-3.1l-9.9-2c-5.7-1.2-10.3-3.6-13.6-7.1s-5-7.9-5-13.2c0-6.3,2.4-11.6,7.3-15.8,4.8-4.3,10.7-6.4,17.6-6.4,11,0,18.6,4,22.9,12.1,1.1,2,1.8,4.1,2.3,6.3l-12.2,3.9c-.4-2.6-1.7-4.9-3.7-7-2.1-2.1-4.9-3.1-8.6-3.1s-6.5,.9-8.5,2.6c-2.1,1.8-3.1,3.9-3.2,6.4,0,4.3,2.5,7,7.6,8l9.9,1.9c6.2,1.2,11.1,3.7,14.5,7.6,3.4,3.7,5.1,8.4,5.1,13.9Z" style="fill: #f7a600;"/>
    <path d="M290.4,106h-13.3V33.6h13.3v27.3c3-3.6,7.5-5.3,13.4-5.3s10.5,1.8,13.6,5.4c3.1,3.6,4.7,8.3,4.7,14.1v31h-13.3v-28.9c0-2.9-.8-5.3-2.3-7.1-1.5-1.8-3.7-2.7-6.6-2.7s-5.2,.9-6.8,2.7c-1.6,1.8-2.5,4.1-2.6,6.9v29h-.1Z" style="fill: #f7a600;"/>
    <path d="M335.2,103.2c-3.1-2.8-4.6-6.2-4.6-10.4s1.4-7.5,4.1-10.1,6.3-4.3,10.6-5l12.1-1.8c2.5-.3,3.7-1.4,3.7-3.4s-.7-3.5-2.1-4.6c-1.4-1.2-3.5-1.8-6.2-1.8s-5,.8-6.6,2.3-2.5,3.5-2.7,5.8l-11.9-2.6c.5-4.3,2.6-8.1,6.3-11.5,3.8-3.3,9.2-5,16.3-5s12.3,1.8,15.4,5.3c3.2,3.6,4.8,8.1,4.8,13.6v24.3c0,2.8,.2,5.2,.6,7.4h-11.2c-.3-1.4-.4-3.2-.4-5.6-3.4,4.7-8.7,7-15.8,7-5.2,.3-9.3-1.1-12.4-3.9Zm10.3-7c1.1,1.2,3,1.7,5.5,1.7s4.8-.9,6.9-2.7c2-1.8,3-4.9,3.1-9.1v-2.3l-11.1,1.7c-4,.6-6.1,2.8-6.1,6.5,0,1.7,.6,3.1,1.7,4.2Z" style="fill: #f7a600;"/>
    <path d="M411.4,69.7c-3.8,0-6.9,1.1-9.2,3.3-2.3,2.1-3.5,5.7-3.5,10.6v22.4h-13.3V56.8h12.9v7.4c2.4-5.2,7.1-7.8,14-7.8,.7,0,1.8,.1,3.1,.2v13.5c-1.4-.3-2.7-.4-4-.4Z" style="fill: #f7a600;"/>
    <path d="M444.2,107.5c-7.1,0-13.1-2.4-18.1-7.2-5-4.8-7.5-11.1-7.5-18.9s2.4-14.1,7.2-18.9c4.8-4.8,10.7-7.2,17.8-7.2s12.7,2.3,17,6.8,6.5,10.8,6.5,18.7l-.1,3.4-.1,.7h-35c.1,3.2,1.4,5.8,3.8,7.9s5.3,3.2,8.6,3.1c5.7,0,9.4-2.4,11.2-7.4l11.1,3.2c-1.3,4.5-4,8.3-7.9,11.2s-8.7,4.6-14.5,4.6Zm-.8-41.3c-3.4,0-6.1,.9-8,2.8-2,1.9-3.1,4.1-3.2,6.4h22c-.2-2.6-1.2-4.8-3-6.6-1.8-1.8-4.4-2.6-7.8-2.6Z" style="fill: #f7a600;"/>
  </g>
</svg>