<?xml version="1.0" encoding="UTF-8"?>
<svg id="Layer_1" data-name="Layer 1" xmlns="http://www.w3.org/2000/svg" viewBox="0 0 210 210">
  <path d="M30,0H180c16.6,0,30,13.4,30,30V180c0,16.6-13.4,30-30,30H30c-16.6,0-30-13.4-30-30V30C0,13.4,13.4,0,30,0Z" style="fill: #fff;"/>
  <path d="M183.4,33h-20.4v3.6h20.4v20.4h3.6v-24h-3.6Z"/>
  <path d="M48,33H24v24h3.6v-20.4h20.4v-3.6Z"/>
  <path d="M24,172.4v3.6h24v-3.6H27.6v-20.4h-3.6v20.4Z"/>
  <path d="M187,172.4v-20.4h-3.6v20.4h-20.4v3.6h24v-3.6Z"/>
  <g>
    <path d="M77,142.6c-10.2,0-18.8-3.4-25.8-10.1-7-6.7-10.5-15.6-10.5-26.6s3.5-20,10.6-26.8c7.1-6.9,15.4-10.3,24.9-10.3s17,2.3,22.5,6.9,9,10.2,10.6,16.7l-13,4.1c-1-4.1-3.1-7.5-6.3-10.2-3.2-2.7-7.6-4.1-13.4-4.1s-10.8,2.1-15.1,6.2c-4.4,4.2-6.5,9.9-6.5,17.3s2.1,13.2,6.4,17.4,9.3,6.3,15.1,6.3,10.4-1.4,13.7-4.3c3.3-2.9,5.5-6.3,6.6-10.2l12.9,3.9c-1.6,6.1-4.9,11.4-9.9,16-2.6,2.4-5.9,4.3-9.9,5.8-3.8,1.3-8.2,2-12.9,2Z"/>
    <path d="M169.2,121.4c0,5.5-2.3,10.4-6.9,14.7-4.6,4.3-10.8,6.5-18.6,6.5-4.4,0-8.5-.7-12-2-6.3-2.3-10.9-6.5-13.8-12.4-1.2-2.5-2-5.1-2.3-7.7l12.8-3.4c.3,3.8,1.8,7,4.5,9.6,2.6,2.6,6,3.8,10.2,3.8s7.2-.8,9.3-2.4c2-1.6,3-3.6,3-5.9s-.8-4.3-2.3-5.8-3.7-2.6-6.4-3.1l-9.9-2c-5.7-1.2-10.3-3.6-13.6-7.1-3.3-3.5-5-7.9-5-13.2,0-6.3,2.4-11.6,7.3-15.8,4.8-4.3,10.7-6.4,17.6-6.4,11,0,18.6,4,22.9,12.1,1.1,2,1.8,4.1,2.3,6.3l-12.2,3.9c-.4-2.6-1.7-4.9-3.7-7-2.1-2.1-4.9-3.1-8.6-3.1s-6.5,.9-8.5,2.6c-2.1,1.8-3.1,3.9-3.2,6.4,0,4.3,2.5,7,7.6,8l9.9,1.9c6.2,1.2,11.1,3.7,14.5,7.6,3.4,3.7,5.1,8.4,5.1,13.9Z" style="fill: #f7a600;"/>
  </g>
</svg>